<svg id="Layer_1" data-name="Layer 1" xmlns="http://www.w3.org/2000/svg" viewBox="0 0 202 172"><defs><style>.cls-1{fill:#fff}</style></defs><g id="Group_61" data-name="Group 61"><g id="academic"><g id="Group_65" data-name="Group 65"><path id="Path_25" data-name="Path 25" class="cls-1" d="M179.52 116h-54.84a27.41 27.41 0 00-21.94 11 27.43 27.43 0 00-21.93-11H26a5.48 5.48 0 00-5.48 5.49V127h46a64.6 64.6 0 0136.27 9.66A64.63 64.63 0 01139 127h46v-5.49a5.5 5.5 0 00-5.48-5.49z"/><g id="Group_62" data-name="Group 62"><path id="Path_26" data-name="Path 26" class="cls-1" d="M92.45 156.26c-6.08-4.88-14.82-7.35-26-7.35H14.63a5.49 5.49 0 110-11h51.84c13.72 0 24.77 3.28 32.84 9.76a5.48 5.48 0 006.86 0c8.07-6.48 19.13-9.76 32.85-9.76h51.84a5.49 5.49 0 010 11H139c-11.17 0-19.91 2.47-26 7.35a16.47 16.47 0 01-20.59 0z"/></g><path id="Path_27" data-name="Path 27" class="cls-1" d="M141.13 61.81V77.6a5.48 5.48 0 01-3 4.91l-24.28 12.13a29.88 29.88 0 00-7.32 5.15 5.49 5.49 0 01-7.57 0 29.83 29.83 0 00-7.31-5.15L67.39 82.51a5.48 5.48 0 01-3-4.91V61.81l33.87 9.68a16.53 16.53 0 009 0z"/><g id="Group_63" data-name="Group 63"><path id="Path_28" data-name="Path 28" class="cls-1" d="M163.07 55.55v33a5.49 5.49 0 11-11 0V58.68z"/></g><g id="Group_64" data-name="Group 64"><path id="Path_29" data-name="Path 29" class="cls-1" d="M101.24 61L24.46 39a5.48 5.48 0 010-10.54l76.78-21.93a5.5 5.5 0 013 0l76.78 22A5.48 5.48 0 01181 39l-76.75 22a5.5 5.5 0 01-3.01 0z"/></g></g></g></g></svg>